<svg xmlns="http://www.w3.org/2000/svg" version="1.1" xmlns:xlink="http://www.w3.org/1999/xlink" xmlns:svgjs="http://svgjs.dev/svgjs" width="1440" height="560" preserveAspectRatio="none" viewBox="0 0 1440 560"><g mask="url(&quot;#SvgjsMask1020&quot;)" fill="none"><rect width="1440" height="560" x="0" y="0" fill="#0e2a47"></rect><path d="M-112.16 371.87L-112.16 371.87" stroke="rgba(255, 255, 255, 0.17)" stroke-width="1.5"></path><path d="M-112.16 371.87L-65.61 497.07" stroke="rgba(255, 255, 255, 0.17)" stroke-width="1.5"></path><path d="M-65.61 497.07L-65.61 497.07" stroke="rgba(255, 255, 255, 0.17)" stroke-width="1.5"></path><path d="M-65.61 497.07L57.35 514.23" stroke="rgba(255, 255, 255, 0.17)" stroke-width="1.5"></path><path d="M-65.61 497.07L-58.96 640.69" stroke="rgba(255, 255, 255, 0.17)" stroke-width="1.5"></path><path d="M-65.61 497.07L97.19 407" stroke="rgba(255, 255, 255, 0.17)" stroke-width="1.5"></path><path d="M-58.96 640.69L-58.96 640.69" stroke="rgba(255, 255, 255, 0.17)" stroke-width="1.5"></path><path d="M-58.96 640.69L40.27 682.59" stroke="rgba(255, 255, 255, 0.17)" stroke-width="1.5"></path><path d="M-58.96 640.69L57.35 514.23" stroke="rgba(255, 255, 255, 0.17)" stroke-width="1.5"></path><path d="M-58.96 640.69L198.22 712.35" stroke="rgba(255, 255, 255, 0.17)" stroke-width="1.5"></path><path d="M-58.96 640.69L190.34 537.68" stroke="rgba(255, 255, 255, 0.17)" stroke-width="1.5"></path><path d="M97.19 407L97.19 407" stroke="rgba(255, 255, 255, 0.17)" stroke-width="1.5"></path><path d="M97.19 407L57.35 514.23" stroke="rgba(255, 255, 255, 0.17)" stroke-width="1.5"></path><path d="M97.19 407L228.67 374.57" stroke="rgba(255, 255, 255, 0.17)" stroke-width="1.5"></path><path d="M97.19 407L190.34 537.68" stroke="rgba(255, 255, 255, 0.17)" stroke-width="1.5"></path><path d="M57.35 514.23L57.35 514.23" stroke="rgba(255, 255, 255, 0.17)" stroke-width="1.5"></path><path d="M57.35 514.23L190.34 537.68" stroke="rgba(255, 255, 255, 0.17)" stroke-width="1.5"></path><path d="M57.35 514.23L40.27 682.59" stroke="rgba(255, 255, 255, 0.17)" stroke-width="1.5"></path><path d="M40.27 682.59L40.27 682.59" stroke="rgba(255, 255, 255, 0.17)" stroke-width="1.5"></path><path d="M40.27 682.59L198.22 712.35" stroke="rgba(255, 255, 255, 0.17)" stroke-width="1.5"></path><path d="M228.67 374.57L228.67 374.57" stroke="rgba(255, 255, 255, 0.17)" stroke-width="1.5"></path><path d="M228.67 374.57L358.23 408.82" stroke="rgba(255, 255, 255, 0.17)" stroke-width="1.5"></path><path d="M228.67 374.57L190.34 537.68" stroke="rgba(255, 255, 255, 0.17)" stroke-width="1.5"></path><path d="M228.67 374.57L341.28 509.82" stroke="rgba(255, 255, 255, 0.17)" stroke-width="1.5"></path><path d="M190.34 537.68L190.34 537.68" stroke="rgba(255, 255, 255, 0.17)" stroke-width="1.5"></path><path d="M190.34 537.68L341.28 509.82" stroke="rgba(255, 255, 255, 0.17)" stroke-width="1.5"></path><path d="M190.34 537.68L198.22 712.35" stroke="rgba(255, 255, 255, 0.17)" stroke-width="1.5"></path><path d="M190.34 537.68L40.27 682.59" stroke="rgba(255, 255, 255, 0.17)" stroke-width="1.5"></path><path d="M198.22 712.35L198.22 712.35" stroke="rgba(255, 255, 255, 0.17)" stroke-width="1.5"></path><path d="M198.22 712.35L399.96 674.54" stroke="rgba(255, 255, 255, 0.17)" stroke-width="1.5"></path><path d="M198.22 712.35L57.35 514.23" stroke="rgba(255, 255, 255, 0.17)" stroke-width="1.5"></path><path d="M358.23 408.82L358.23 408.82" stroke="rgba(255, 255, 255, 0.17)" stroke-width="1.5"></path><path d="M358.23 408.82L341.28 509.82" stroke="rgba(255, 255, 255, 0.17)" stroke-width="1.5"></path><path d="M358.23 408.82L492.48 380.56" stroke="rgba(255, 255, 255, 0.17)" stroke-width="1.5"></path><path d="M358.23 408.82L517.41 539.52" stroke="rgba(255, 255, 255, 0.17)" stroke-width="1.5"></path><path d="M341.28 509.82L341.28 509.82" stroke="rgba(255, 255, 255, 0.17)" stroke-width="1.5"></path><path d="M341.28 509.82L399.96 674.54" stroke="rgba(255, 255, 255, 0.17)" stroke-width="1.5"></path><path d="M399.96 674.54L399.96 674.54" stroke="rgba(255, 255, 255, 0.17)" stroke-width="1.5"></path><path d="M399.96 674.54L515.38 681.86" stroke="rgba(255, 255, 255, 0.17)" stroke-width="1.5"></path><path d="M492.48 380.56L492.48 380.56" stroke="rgba(255, 255, 255, 0.17)" stroke-width="1.5"></path><path d="M492.48 380.56L517.41 539.52" stroke="rgba(255, 255, 255, 0.17)" stroke-width="1.5"></path><path d="M492.48 380.56L689.81 361.34" stroke="rgba(255, 255, 255, 0.17)" stroke-width="1.5"></path><path d="M492.48 380.56L341.28 509.82" stroke="rgba(255, 255, 255, 0.17)" stroke-width="1.5"></path><path d="M492.48 380.56L652.74 244.84" stroke="rgba(255, 255, 255, 0.17)" stroke-width="1.5"></path><path d="M492.48 380.56L659.12 538.67" stroke="rgba(255, 255, 255, 0.17)" stroke-width="1.5"></path><path d="M517.41 539.52L517.41 539.52" stroke="rgba(255, 255, 255, 0.17)" stroke-width="1.5"></path><path d="M517.41 539.52L659.12 538.67" stroke="rgba(255, 255, 255, 0.17)" stroke-width="1.5"></path><path d="M517.41 539.52L515.38 681.86" stroke="rgba(255, 255, 255, 0.17)" stroke-width="1.5"></path><path d="M517.41 539.52L341.28 509.82" stroke="rgba(255, 255, 255, 0.17)" stroke-width="1.5"></path><path d="M517.41 539.52L399.96 674.54" stroke="rgba(255, 255, 255, 0.17)" stroke-width="1.5"></path><path d="M515.38 681.86L515.38 681.86" stroke="rgba(255, 255, 255, 0.17)" stroke-width="1.5"></path><path d="M515.38 681.86L639.25 709.05" stroke="rgba(255, 255, 255, 0.17)" stroke-width="1.5"></path><path d="M652.74 244.84L652.74 244.84" stroke="rgba(255, 255, 255, 0.17)" stroke-width="1.5"></path><path d="M652.74 244.84L689.81 361.34" stroke="rgba(255, 255, 255, 0.17)" stroke-width="1.5"></path><path d="M652.74 244.84L815.72 202.77" stroke="rgba(255, 255, 255, 0.17)" stroke-width="1.5"></path><path d="M689.81 361.34L689.81 361.34" stroke="rgba(255, 255, 255, 0.17)" stroke-width="1.5"></path><path d="M689.81 361.34L796.3 370.34" stroke="rgba(255, 255, 255, 0.17)" stroke-width="1.5"></path><path d="M689.81 361.34L659.12 538.67" stroke="rgba(255, 255, 255, 0.17)" stroke-width="1.5"></path><path d="M659.12 538.67L659.12 538.67" stroke="rgba(255, 255, 255, 0.17)" stroke-width="1.5"></path><path d="M659.12 538.67L806.81 515.41" stroke="rgba(255, 255, 255, 0.17)" stroke-width="1.5"></path><path d="M659.12 538.67L639.25 709.05" stroke="rgba(255, 255, 255, 0.17)" stroke-width="1.5"></path><path d="M659.12 538.67L515.38 681.86" stroke="rgba(255, 255, 255, 0.17)" stroke-width="1.5"></path><path d="M639.25 709.05L639.25 709.05" stroke="rgba(255, 255, 255, 0.17)" stroke-width="1.5"></path><path d="M639.25 709.05L517.41 539.52" stroke="rgba(255, 255, 255, 0.17)" stroke-width="1.5"></path><path d="M639.25 709.05L849.28 644.87" stroke="rgba(255, 255, 255, 0.17)" stroke-width="1.5"></path><path d="M639.25 709.05L399.96 674.54" stroke="rgba(255, 255, 255, 0.17)" stroke-width="1.5"></path><path d="M639.25 709.05L806.81 515.41" stroke="rgba(255, 255, 255, 0.17)" stroke-width="1.5"></path><path d="M815.72 202.77L815.72 202.77" stroke="rgba(255, 255, 255, 0.17)" stroke-width="1.5"></path><path d="M815.72 202.77L796.3 370.34" stroke="rgba(255, 255, 255, 0.17)" stroke-width="1.5"></path><path d="M815.72 202.77L1008.25 206.54" stroke="rgba(255, 255, 255, 0.17)" stroke-width="1.5"></path><path d="M815.72 202.77L689.81 361.34" stroke="rgba(255, 255, 255, 0.17)" stroke-width="1.5"></path><path d="M796.3 370.34L796.3 370.34" stroke="rgba(255, 255, 255, 0.17)" stroke-width="1.5"></path><path d="M796.3 370.34L806.81 515.41" stroke="rgba(255, 255, 255, 0.17)" stroke-width="1.5"></path><path d="M806.81 515.41L806.81 515.41" stroke="rgba(255, 255, 255, 0.17)" stroke-width="1.5"></path><path d="M806.81 515.41L849.28 644.87" stroke="rgba(255, 255, 255, 0.17)" stroke-width="1.5"></path><path d="M806.81 515.41L950.39 548.27" stroke="rgba(255, 255, 255, 0.17)" stroke-width="1.5"></path><path d="M849.28 644.87L849.28 644.87" stroke="rgba(255, 255, 255, 0.17)" stroke-width="1.5"></path><path d="M849.28 644.87L950.39 548.27" stroke="rgba(255, 255, 255, 0.17)" stroke-width="1.5"></path><path d="M849.28 644.87L990.66 657.04" stroke="rgba(255, 255, 255, 0.17)" stroke-width="1.5"></path><path d="M849.28 644.87L659.12 538.67" stroke="rgba(255, 255, 255, 0.17)" stroke-width="1.5"></path><path d="M949.2 -100.88L949.2 -100.88" stroke="rgba(255, 255, 255, 0.17)" stroke-width="1.5"></path><path d="M949.2 -100.88L1113.71 -94.26" stroke="rgba(255, 255, 255, 0.17)" stroke-width="1.5"></path><path d="M979.64 68.38L979.64 68.38" stroke="rgba(255, 255, 255, 0.17)" stroke-width="1.5"></path><path d="M979.64 68.38L1008.25 206.54" stroke="rgba(255, 255, 255, 0.17)" stroke-width="1.5"></path><path d="M979.64 68.38L949.2 -100.88" stroke="rgba(255, 255, 255, 0.17)" stroke-width="1.5"></path><path d="M979.64 68.38L1093.11 238.43" stroke="rgba(255, 255, 255, 0.17)" stroke-width="1.5"></path><path d="M979.64 68.38L1113.71 -94.26" stroke="rgba(255, 255, 255, 0.17)" stroke-width="1.5"></path><path d="M979.64 68.38L815.72 202.77" stroke="rgba(255, 255, 255, 0.17)" stroke-width="1.5"></path><path d="M979.64 68.38L1268.78 50.17" stroke="rgba(255, 255, 255, 0.17)" stroke-width="1.5"></path><path d="M1008.25 206.54L1008.25 206.54" stroke="rgba(255, 255, 255, 0.17)" stroke-width="1.5"></path><path d="M1008.25 206.54L1093.11 238.43" stroke="rgba(255, 255, 255, 0.17)" stroke-width="1.5"></path><path d="M1008.25 206.54L984.3 367.83" stroke="rgba(255, 255, 255, 0.17)" stroke-width="1.5"></path><path d="M1008.25 206.54L1088.87 404.73" stroke="rgba(255, 255, 255, 0.17)" stroke-width="1.5"></path><path d="M984.3 367.83L984.3 367.83" stroke="rgba(255, 255, 255, 0.17)" stroke-width="1.5"></path><path d="M984.3 367.83L1088.87 404.73" stroke="rgba(255, 255, 255, 0.17)" stroke-width="1.5"></path><path d="M984.3 367.83L1093.11 238.43" stroke="rgba(255, 255, 255, 0.17)" stroke-width="1.5"></path><path d="M984.3 367.83L950.39 548.27" stroke="rgba(255, 255, 255, 0.17)" stroke-width="1.5"></path><path d="M984.3 367.83L1090.78 519.3" stroke="rgba(255, 255, 255, 0.17)" stroke-width="1.5"></path><path d="M950.39 548.27L950.39 548.27" stroke="rgba(255, 255, 255, 0.17)" stroke-width="1.5"></path><path d="M950.39 548.27L990.66 657.04" stroke="rgba(255, 255, 255, 0.17)" stroke-width="1.5"></path><path d="M950.39 548.27L1090.78 519.3" stroke="rgba(255, 255, 255, 0.17)" stroke-width="1.5"></path><path d="M990.66 657.04L990.66 657.04" stroke="rgba(255, 255, 255, 0.17)" stroke-width="1.5"></path><path d="M990.66 657.04L1091.58 674.93" stroke="rgba(255, 255, 255, 0.17)" stroke-width="1.5"></path><path d="M1113.71 -94.26L1113.71 -94.26" stroke="rgba(255, 255, 255, 0.17)" stroke-width="1.5"></path><path d="M1113.71 -94.26L1249.51 -52.33" stroke="rgba(255, 255, 255, 0.17)" stroke-width="1.5"></path><path d="M1113.71 -94.26L1268.78 50.17" stroke="rgba(255, 255, 255, 0.17)" stroke-width="1.5"></path><path d="M1113.71 -94.26L1008.25 206.54" stroke="rgba(255, 255, 255, 0.17)" stroke-width="1.5"></path><path d="M1093.11 238.43L1093.11 238.43" stroke="rgba(255, 255, 255, 0.17)" stroke-width="1.5"></path><path d="M1093.11 238.43L1088.87 404.73" stroke="rgba(255, 255, 255, 0.17)" stroke-width="1.5"></path><path d="M1088.87 404.73L1088.87 404.73" stroke="rgba(255, 255, 255, 0.17)" stroke-width="1.5"></path><path d="M1088.87 404.73L1090.78 519.3" stroke="rgba(255, 255, 255, 0.17)" stroke-width="1.5"></path><path d="M1088.87 404.73L1259.81 362.28" stroke="rgba(255, 255, 255, 0.17)" stroke-width="1.5"></path><path d="M1088.87 404.73L950.39 548.27" stroke="rgba(255, 255, 255, 0.17)" stroke-width="1.5"></path><path d="M1090.78 519.3L1090.78 519.3" stroke="rgba(255, 255, 255, 0.17)" stroke-width="1.5"></path><path d="M1090.78 519.3L1091.58 674.93" stroke="rgba(255, 255, 255, 0.17)" stroke-width="1.5"></path><path d="M1090.78 519.3L990.66 657.04" stroke="rgba(255, 255, 255, 0.17)" stroke-width="1.5"></path><path d="M1091.58 674.93L1091.58 674.93" stroke="rgba(255, 255, 255, 0.17)" stroke-width="1.5"></path><path d="M1091.58 674.93L1272.09 649.17" stroke="rgba(255, 255, 255, 0.17)" stroke-width="1.5"></path><path d="M1091.58 674.93L950.39 548.27" stroke="rgba(255, 255, 255, 0.17)" stroke-width="1.5"></path><path d="M1091.58 674.93L1276.4 554.59" stroke="rgba(255, 255, 255, 0.17)" stroke-width="1.5"></path><path d="M1249.51 -52.33L1249.51 -52.33" stroke="rgba(255, 255, 255, 0.17)" stroke-width="1.5"></path><path d="M1249.51 -52.33L1268.78 50.17" stroke="rgba(255, 255, 255, 0.17)" stroke-width="1.5"></path><path d="M1249.51 -52.33L1398.46 66.73" stroke="rgba(255, 255, 255, 0.17)" stroke-width="1.5"></path><path d="M1249.51 -52.33L979.64 68.38" stroke="rgba(255, 255, 255, 0.17)" stroke-width="1.5"></path><path d="M1249.51 -52.33L949.2 -100.88" stroke="rgba(255, 255, 255, 0.17)" stroke-width="1.5"></path><path d="M1249.51 -52.33L1403.22 224.05" stroke="rgba(255, 255, 255, 0.17)" stroke-width="1.5"></path><path d="M1268.78 50.17L1268.78 50.17" stroke="rgba(255, 255, 255, 0.17)" stroke-width="1.5"></path><path d="M1268.78 50.17L1398.46 66.73" stroke="rgba(255, 255, 255, 0.17)" stroke-width="1.5"></path><path d="M1268.78 50.17L1403.22 224.05" stroke="rgba(255, 255, 255, 0.17)" stroke-width="1.5"></path><path d="M1268.78 50.17L1093.11 238.43" stroke="rgba(255, 255, 255, 0.17)" stroke-width="1.5"></path><path d="M1259.81 362.28L1259.81 362.28" stroke="rgba(255, 255, 255, 0.17)" stroke-width="1.5"></path><path d="M1259.81 362.28L1276.4 554.59" stroke="rgba(255, 255, 255, 0.17)" stroke-width="1.5"></path><path d="M1259.81 362.28L1403.22 224.05" stroke="rgba(255, 255, 255, 0.17)" stroke-width="1.5"></path><path d="M1259.81 362.28L1458.19 409.69" stroke="rgba(255, 255, 255, 0.17)" stroke-width="1.5"></path><path d="M1259.81 362.28L1093.11 238.43" stroke="rgba(255, 255, 255, 0.17)" stroke-width="1.5"></path><path d="M1259.81 362.28L1090.78 519.3" stroke="rgba(255, 255, 255, 0.17)" stroke-width="1.5"></path><path d="M1276.4 554.59L1276.4 554.59" stroke="rgba(255, 255, 255, 0.17)" stroke-width="1.5"></path><path d="M1276.4 554.59L1272.09 649.17" stroke="rgba(255, 255, 255, 0.17)" stroke-width="1.5"></path><path d="M1276.4 554.59L1402.2 692.47" stroke="rgba(255, 255, 255, 0.17)" stroke-width="1.5"></path><path d="M1276.4 554.59L1090.78 519.3" stroke="rgba(255, 255, 255, 0.17)" stroke-width="1.5"></path><path d="M1276.4 554.59L1458.19 409.69" stroke="rgba(255, 255, 255, 0.17)" stroke-width="1.5"></path><path d="M1272.09 649.17L1272.09 649.17" stroke="rgba(255, 255, 255, 0.17)" stroke-width="1.5"></path><path d="M1272.09 649.17L1402.2 692.47" stroke="rgba(255, 255, 255, 0.17)" stroke-width="1.5"></path><path d="M1398.46 66.73L1398.46 66.73" stroke="rgba(255, 255, 255, 0.17)" stroke-width="1.5"></path><path d="M1398.46 66.73L1403.22 224.05" stroke="rgba(255, 255, 255, 0.17)" stroke-width="1.5"></path><path d="M1398.46 66.73L1580.63 111.57" stroke="rgba(255, 255, 255, 0.17)" stroke-width="1.5"></path><path d="M1403.22 224.05L1403.22 224.05" stroke="rgba(255, 255, 255, 0.17)" stroke-width="1.5"></path><path d="M1403.22 224.05L1539.12 227.9" stroke="rgba(255, 255, 255, 0.17)" stroke-width="1.5"></path><path d="M1403.22 224.05L1458.19 409.69" stroke="rgba(255, 255, 255, 0.17)" stroke-width="1.5"></path><path d="M1403.22 224.05L1563.48 355.56" stroke="rgba(255, 255, 255, 0.17)" stroke-width="1.5"></path><path d="M1458.19 409.69L1458.19 409.69" stroke="rgba(255, 255, 255, 0.17)" stroke-width="1.5"></path><path d="M1458.19 409.69L1563.48 355.56" stroke="rgba(255, 255, 255, 0.17)" stroke-width="1.5"></path><path d="M1458.19 409.69L1594.93 551.23" stroke="rgba(255, 255, 255, 0.17)" stroke-width="1.5"></path><path d="M1458.19 409.69L1539.12 227.9" stroke="rgba(255, 255, 255, 0.17)" stroke-width="1.5"></path><path d="M1402.2 692.47L1402.2 692.47" stroke="rgba(255, 255, 255, 0.17)" stroke-width="1.5"></path><path d="M1402.2 692.47L1540.18 697.87" stroke="rgba(255, 255, 255, 0.17)" stroke-width="1.5"></path><path d="M1402.2 692.47L1594.93 551.23" stroke="rgba(255, 255, 255, 0.17)" stroke-width="1.5"></path><path d="M1611.88 -92.41L1611.88 -92.41" stroke="rgba(255, 255, 255, 0.17)" stroke-width="1.5"></path><path d="M1611.88 -92.41L1580.63 111.57" stroke="rgba(255, 255, 255, 0.17)" stroke-width="1.5"></path><path d="M1611.88 -92.41L1398.46 66.73" stroke="rgba(255, 255, 255, 0.17)" stroke-width="1.5"></path><path d="M1611.88 -92.41L1539.12 227.9" stroke="rgba(255, 255, 255, 0.17)" stroke-width="1.5"></path><path d="M1611.88 -92.41L1249.51 -52.33" stroke="rgba(255, 255, 255, 0.17)" stroke-width="1.5"></path><path d="M1611.88 -92.41L1268.78 50.17" stroke="rgba(255, 255, 255, 0.17)" stroke-width="1.5"></path><path d="M1580.63 111.57L1580.63 111.57" stroke="rgba(255, 255, 255, 0.17)" stroke-width="1.5"></path><path d="M1580.63 111.57L1539.12 227.9" stroke="rgba(255, 255, 255, 0.17)" stroke-width="1.5"></path><path d="M1580.63 111.57L1403.22 224.05" stroke="rgba(255, 255, 255, 0.17)" stroke-width="1.5"></path><path d="M1580.63 111.57L1563.48 355.56" stroke="rgba(255, 255, 255, 0.17)" stroke-width="1.5"></path><path d="M1539.12 227.9L1539.12 227.9" stroke="rgba(255, 255, 255, 0.17)" stroke-width="1.5"></path><path d="M1539.12 227.9L1563.48 355.56" stroke="rgba(255, 255, 255, 0.17)" stroke-width="1.5"></path><path d="M1563.48 355.56L1563.48 355.56" stroke="rgba(255, 255, 255, 0.17)" stroke-width="1.5"></path><path d="M1594.93 551.23L1594.93 551.23" stroke="rgba(255, 255, 255, 0.17)" stroke-width="1.5"></path><path d="M1594.93 551.23L1540.18 697.87" stroke="rgba(255, 255, 255, 0.17)" stroke-width="1.5"></path><path d="M1594.93 551.23L1563.48 355.56" stroke="rgba(255, 255, 255, 0.17)" stroke-width="1.5"></path><path d="M1594.93 551.23L1276.4 554.59" stroke="rgba(255, 255, 255, 0.17)" stroke-width="1.5"></path><path d="M1594.93 551.23L1539.12 227.9" stroke="rgba(255, 255, 255, 0.17)" stroke-width="1.5"></path><path d="M1540.18 697.87L1540.18 697.87" stroke="rgba(255, 255, 255, 0.17)" stroke-width="1.5"></path><path d="M1540.18 697.87L1272.09 649.17" stroke="rgba(255, 255, 255, 0.17)" stroke-width="1.5"></path><circle r="5" cx="-112.16" cy="371.87" fill="rgba(255, 255, 255, 0.17)"></circle><circle r="5" cx="-65.61" cy="497.07" fill="rgba(255, 255, 255, 0.17)"></circle><circle r="5" cx="-58.96" cy="640.69" fill="rgba(255, 255, 255, 0.17)"></circle><circle r="5" cx="97.19" cy="407" fill="rgba(255, 255, 255, 0.17)"></circle><circle r="5" cx="57.35" cy="514.23" fill="rgba(255, 255, 255, 0.17)"></circle><circle r="5" cx="40.27" cy="682.59" fill="rgba(255, 255, 255, 0.17)"></circle><circle r="5" cx="228.67" cy="374.57" fill="rgba(255, 255, 255, 0.17)"></circle><circle r="5" cx="190.34" cy="537.68" fill="rgba(255, 255, 255, 0.17)"></circle><circle r="5" cx="198.22" cy="712.35" fill="rgba(255, 255, 255, 0.17)"></circle><circle r="5" cx="358.23" cy="408.82" fill="rgba(255, 255, 255, 0.17)"></circle><circle r="5" cx="341.28" cy="509.82" fill="rgba(255, 255, 255, 0.17)"></circle><circle r="5" cx="399.96" cy="674.54" fill="rgba(255, 255, 255, 0.17)"></circle><circle r="5" cx="492.48" cy="380.56" fill="rgba(255, 255, 255, 0.17)"></circle><circle r="5" cx="517.41" cy="539.52" fill="rgba(255, 255, 255, 0.17)"></circle><circle r="5" cx="515.38" cy="681.86" fill="rgba(255, 255, 255, 0.17)"></circle><circle r="5" cx="652.74" cy="244.84" fill="rgba(255, 255, 255, 0.17)"></circle><circle r="5" cx="689.81" cy="361.34" fill="rgba(255, 255, 255, 0.17)"></circle><circle r="5" cx="659.12" cy="538.67" fill="rgba(255, 255, 255, 0.17)"></circle><circle r="5" cx="639.25" cy="709.05" fill="rgba(255, 255, 255, 0.17)"></circle><circle r="5" cx="815.72" cy="202.77" fill="rgba(255, 255, 255, 0.17)"></circle><circle r="5" cx="796.3" cy="370.34" fill="rgba(255, 255, 255, 0.17)"></circle><circle r="5" cx="806.81" cy="515.41" fill="rgba(255, 255, 255, 0.17)"></circle><circle r="5" cx="849.28" cy="644.87" fill="rgba(255, 255, 255, 0.17)"></circle><circle r="5" cx="949.2" cy="-100.88" fill="rgba(255, 255, 255, 0.17)"></circle><circle r="5" cx="979.64" cy="68.38" fill="rgba(255, 255, 255, 0.17)"></circle><circle r="5" cx="1008.25" cy="206.54" fill="rgba(255, 255, 255, 0.17)"></circle><circle r="5" cx="984.3" cy="367.83" fill="rgba(255, 255, 255, 0.17)"></circle><circle r="5" cx="950.39" cy="548.27" fill="rgba(255, 255, 255, 0.17)"></circle><circle r="5" cx="990.66" cy="657.04" fill="rgba(255, 255, 255, 0.17)"></circle><circle r="5" cx="1113.71" cy="-94.26" fill="rgba(255, 255, 255, 0.17)"></circle><circle r="5" cx="1093.11" cy="238.43" fill="rgba(255, 255, 255, 0.17)"></circle><circle r="5" cx="1088.87" cy="404.73" fill="rgba(255, 255, 255, 0.17)"></circle><circle r="5" cx="1090.78" cy="519.3" fill="rgba(255, 255, 255, 0.17)"></circle><circle r="5" cx="1091.58" cy="674.93" fill="rgba(255, 255, 255, 0.17)"></circle><circle r="5" cx="1249.51" cy="-52.33" fill="rgba(255, 255, 255, 0.17)"></circle><circle r="5" cx="1268.78" cy="50.17" fill="rgba(255, 255, 255, 0.17)"></circle><circle r="5" cx="1259.81" cy="362.28" fill="rgba(255, 255, 255, 0.17)"></circle><circle r="5" cx="1276.4" cy="554.59" fill="rgba(255, 255, 255, 0.17)"></circle><circle r="5" cx="1272.09" cy="649.17" fill="rgba(255, 255, 255, 0.17)"></circle><circle r="5" cx="1398.46" cy="66.73" fill="rgba(255, 255, 255, 0.17)"></circle><circle r="5" cx="1403.22" cy="224.05" fill="rgba(255, 255, 255, 0.17)"></circle><circle r="5" cx="1458.19" cy="409.69" fill="rgba(255, 255, 255, 0.17)"></circle><circle r="5" cx="1402.2" cy="692.47" fill="rgba(255, 255, 255, 0.17)"></circle><circle r="5" cx="1611.88" cy="-92.41" fill="rgba(255, 255, 255, 0.17)"></circle><circle r="5" cx="1580.63" cy="111.57" fill="rgba(255, 255, 255, 0.17)"></circle><circle r="5" cx="1539.12" cy="227.9" fill="rgba(255, 255, 255, 0.17)"></circle><circle r="5" cx="1563.48" cy="355.56" fill="rgba(255, 255, 255, 0.17)"></circle><circle r="5" cx="1594.93" cy="551.23" fill="rgba(255, 255, 255, 0.17)"></circle><circle r="5" cx="1540.18" cy="697.87" fill="rgba(255, 255, 255, 0.17)"></circle><path d="M410.5 510.96L410.5 510.96" stroke="hsl(165.60000000000002, 100%, 65%)" stroke-width="1.5"></path><path d="M410.5 510.96L509.81 493.57" stroke="hsl(165.60000000000002, 100%, 65%)" stroke-width="1.5"></path><path d="M410.5 510.96L247.91 558.94" stroke="hsl(165.60000000000002, 100%, 65%)" stroke-width="1.5"></path><path d="M410.5 510.96L519.11 651" stroke="hsl(165.60000000000002, 100%, 65%)" stroke-width="1.5"></path><path d="M410.5 510.96L348.49 682.34" stroke="hsl(165.60000000000002, 100%, 65%)" stroke-width="1.5"></path><path d="M410.5 510.96L207.55 662.38" stroke="hsl(165.60000000000002, 100%, 65%)" stroke-width="1.5"></path><path d="M841.9 678.6L841.9 678.6" stroke="hsl(165.60000000000002, 100%, 65%)" stroke-width="1.5"></path><path d="M841.9 678.6L982.94 708.11" stroke="hsl(165.60000000000002, 100%, 65%)" stroke-width="1.5"></path><path d="M841.9 678.6L699.44 651.66" stroke="hsl(165.60000000000002, 100%, 65%)" stroke-width="1.5"></path><path d="M841.9 678.6L853.77 523.25" stroke="hsl(165.60000000000002, 100%, 65%)" stroke-width="1.5"></path><path d="M987.87 541.93L987.87 541.93" stroke="hsl(165.60000000000002, 100%, 65%)" stroke-width="1.5"></path><path d="M987.87 541.93L853.77 523.25" stroke="hsl(165.60000000000002, 100%, 65%)" stroke-width="1.5"></path><path d="M1309.51 546.71L1309.51 546.71" stroke="hsl(165.60000000000002, 100%, 65%)" stroke-width="1.5"></path><path d="M1309.51 546.71L1416.1 507.57" stroke="hsl(165.60000000000002, 100%, 65%)" stroke-width="1.5"></path><path d="M1309.51 546.71L1252.04 695.96" stroke="hsl(165.60000000000002, 100%, 65%)" stroke-width="1.5"></path><path d="M1309.51 546.71L1144 555.14" stroke="hsl(165.60000000000002, 100%, 65%)" stroke-width="1.5"></path><path d="M1309.51 546.71L1432.68 678.27" stroke="hsl(165.60000000000002, 100%, 65%)" stroke-width="1.5"></path><path d="M1309.51 546.71L1245.83 351.67" stroke="hsl(165.60000000000002, 100%, 65%)" stroke-width="1.5"></path><path d="M1309.51 546.71L1404.82 343.72" stroke="hsl(165.60000000000002, 100%, 65%)" stroke-width="1.5"></path><path d="M1252.04 695.96L1252.04 695.96" stroke="hsl(165.60000000000002, 100%, 65%)" stroke-width="1.5"></path><path d="M1252.04 695.96L1131.5 684.21" stroke="hsl(165.60000000000002, 100%, 65%)" stroke-width="1.5"></path><path d="M1252.04 695.96L1144 555.14" stroke="hsl(165.60000000000002, 100%, 65%)" stroke-width="1.5"></path><path d="M1584.37 -75.1L1584.37 -75.1" stroke="hsl(165.60000000000002, 100%, 65%)" stroke-width="1.5"></path><path d="M1584.37 -75.1L1537.76 62.46" stroke="hsl(165.60000000000002, 100%, 65%)" stroke-width="1.5"></path><path d="M1584.37 -75.1L1458.88 42.84" stroke="hsl(165.60000000000002, 100%, 65%)" stroke-width="1.5"></path><path d="M1584.37 -75.1L1408.79 -80.38" stroke="hsl(165.60000000000002, 100%, 65%)" stroke-width="1.5"></path><path d="M1584.37 -75.1L1261.06 -70.77" stroke="hsl(165.60000000000002, 100%, 65%)" stroke-width="1.5"></path><path d="M1584.37 -75.1L1265.55 56.29" stroke="hsl(165.60000000000002, 100%, 65%)" stroke-width="1.5"></path><path d="M1584.37 -75.1L1387.61 232.13" stroke="hsl(165.60000000000002, 100%, 65%)" stroke-width="1.5"></path><path d="M-93.09 551.26L-93.09 551.26" stroke="hsl(165.60000000000002, 100%, 65%)" stroke-width="1.5"></path><path d="M-93.09 551.26L-87.6 705.35" stroke="hsl(165.60000000000002, 100%, 65%)" stroke-width="1.5"></path><path d="M-93.09 551.26L74.91 552.54" stroke="hsl(165.60000000000002, 100%, 65%)" stroke-width="1.5"></path><path d="M-87.6 705.35L-87.6 705.35" stroke="hsl(165.60000000000002, 100%, 65%)" stroke-width="1.5"></path><path d="M-87.6 705.35L38.08 671.12" stroke="hsl(165.60000000000002, 100%, 65%)" stroke-width="1.5"></path><path d="M-87.6 705.35L74.91 552.54" stroke="hsl(165.60000000000002, 100%, 65%)" stroke-width="1.5"></path><path d="M-87.6 705.35L207.55 662.38" stroke="hsl(165.60000000000002, 100%, 65%)" stroke-width="1.5"></path><path d="M-87.6 705.35L247.91 558.94" stroke="hsl(165.60000000000002, 100%, 65%)" stroke-width="1.5"></path><path d="M74.91 552.54L74.91 552.54" stroke="hsl(165.60000000000002, 100%, 65%)" stroke-width="1.5"></path><path d="M74.91 552.54L38.08 671.12" stroke="hsl(165.60000000000002, 100%, 65%)" stroke-width="1.5"></path><path d="M74.91 552.54L207.55 662.38" stroke="hsl(165.60000000000002, 100%, 65%)" stroke-width="1.5"></path><path d="M38.08 671.12L38.08 671.12" stroke="hsl(165.60000000000002, 100%, 65%)" stroke-width="1.5"></path><path d="M38.08 671.12L207.55 662.38" stroke="hsl(165.60000000000002, 100%, 65%)" stroke-width="1.5"></path><path d="M38.08 671.12L-93.09 551.26" stroke="hsl(165.60000000000002, 100%, 65%)" stroke-width="1.5"></path><path d="M38.08 671.12L247.91 558.94" stroke="hsl(165.60000000000002, 100%, 65%)" stroke-width="1.5"></path><path d="M38.08 671.12L348.49 682.34" stroke="hsl(165.60000000000002, 100%, 65%)" stroke-width="1.5"></path><path d="M247.91 558.94L247.91 558.94" stroke="hsl(165.60000000000002, 100%, 65%)" stroke-width="1.5"></path><path d="M247.91 558.94L207.55 662.38" stroke="hsl(165.60000000000002, 100%, 65%)" stroke-width="1.5"></path><path d="M247.91 558.94L348.49 682.34" stroke="hsl(165.60000000000002, 100%, 65%)" stroke-width="1.5"></path><path d="M207.55 662.38L207.55 662.38" stroke="hsl(165.60000000000002, 100%, 65%)" stroke-width="1.5"></path><path d="M207.55 662.38L348.49 682.34" stroke="hsl(165.60000000000002, 100%, 65%)" stroke-width="1.5"></path><path d="M348.49 682.34L348.49 682.34" stroke="hsl(165.60000000000002, 100%, 65%)" stroke-width="1.5"></path><path d="M348.49 682.34L519.11 651" stroke="hsl(165.60000000000002, 100%, 65%)" stroke-width="1.5"></path><path d="M509.81 493.57L509.81 493.57" stroke="hsl(165.60000000000002, 100%, 65%)" stroke-width="1.5"></path><path d="M509.81 493.57L519.11 651" stroke="hsl(165.60000000000002, 100%, 65%)" stroke-width="1.5"></path><path d="M519.11 651L519.11 651" stroke="hsl(165.60000000000002, 100%, 65%)" stroke-width="1.5"></path><path d="M654.28 381.21L654.28 381.21" stroke="hsl(165.60000000000002, 100%, 65%)" stroke-width="1.5"></path><path d="M654.28 381.21L688.39 490.05" stroke="hsl(165.60000000000002, 100%, 65%)" stroke-width="1.5"></path><path d="M654.28 381.21L509.81 493.57" stroke="hsl(165.60000000000002, 100%, 65%)" stroke-width="1.5"></path><path d="M654.28 381.21L852.41 356.43" stroke="hsl(165.60000000000002, 100%, 65%)" stroke-width="1.5"></path><path d="M654.28 381.21L853.77 523.25" stroke="hsl(165.60000000000002, 100%, 65%)" stroke-width="1.5"></path><path d="M654.28 381.21L699.44 651.66" stroke="hsl(165.60000000000002, 100%, 65%)" stroke-width="1.5"></path><path d="M654.28 381.21L410.5 510.96" stroke="hsl(165.60000000000002, 100%, 65%)" stroke-width="1.5"></path><path d="M688.39 490.05L688.39 490.05" stroke="hsl(165.60000000000002, 100%, 65%)" stroke-width="1.5"></path><path d="M688.39 490.05L699.44 651.66" stroke="hsl(165.60000000000002, 100%, 65%)" stroke-width="1.5"></path><path d="M699.44 651.66L699.44 651.66" stroke="hsl(165.60000000000002, 100%, 65%)" stroke-width="1.5"></path><path d="M852.41 356.43L852.41 356.43" stroke="hsl(165.60000000000002, 100%, 65%)" stroke-width="1.5"></path><path d="M852.41 356.43L945.68 409.25" stroke="hsl(165.60000000000002, 100%, 65%)" stroke-width="1.5"></path><path d="M852.41 356.43L853.77 523.25" stroke="hsl(165.60000000000002, 100%, 65%)" stroke-width="1.5"></path><path d="M853.77 523.25L853.77 523.25" stroke="hsl(165.60000000000002, 100%, 65%)" stroke-width="1.5"></path><path d="M853.77 523.25L945.68 409.25" stroke="hsl(165.60000000000002, 100%, 65%)" stroke-width="1.5"></path><path d="M945.68 409.25L945.68 409.25" stroke="hsl(165.60000000000002, 100%, 65%)" stroke-width="1.5"></path><path d="M945.68 409.25L987.87 541.93" stroke="hsl(165.60000000000002, 100%, 65%)" stroke-width="1.5"></path><path d="M945.68 409.25L1111.66 406.63" stroke="hsl(165.60000000000002, 100%, 65%)" stroke-width="1.5"></path><path d="M945.68 409.25L1091.96 226.84" stroke="hsl(165.60000000000002, 100%, 65%)" stroke-width="1.5"></path><path d="M945.68 409.25L1144 555.14" stroke="hsl(165.60000000000002, 100%, 65%)" stroke-width="1.5"></path><path d="M982.94 708.11L982.94 708.11" stroke="hsl(165.60000000000002, 100%, 65%)" stroke-width="1.5"></path><path d="M982.94 708.11L1131.5 684.21" stroke="hsl(165.60000000000002, 100%, 65%)" stroke-width="1.5"></path><path d="M1159.95 -105.12L1159.95 -105.12" stroke="hsl(165.60000000000002, 100%, 65%)" stroke-width="1.5"></path><path d="M1159.95 -105.12L1261.06 -70.77" stroke="hsl(165.60000000000002, 100%, 65%)" stroke-width="1.5"></path><path d="M1159.95 -105.12L1265.55 56.29" stroke="hsl(165.60000000000002, 100%, 65%)" stroke-width="1.5"></path><path d="M1091.96 226.84L1091.96 226.84" stroke="hsl(165.60000000000002, 100%, 65%)" stroke-width="1.5"></path><path d="M1091.96 226.84L1240.67 209.8" stroke="hsl(165.60000000000002, 100%, 65%)" stroke-width="1.5"></path><path d="M1091.96 226.84L1111.66 406.63" stroke="hsl(165.60000000000002, 100%, 65%)" stroke-width="1.5"></path><path d="M1091.96 226.84L1245.83 351.67" stroke="hsl(165.60000000000002, 100%, 65%)" stroke-width="1.5"></path><path d="M1091.96 226.84L1265.55 56.29" stroke="hsl(165.60000000000002, 100%, 65%)" stroke-width="1.5"></path><path d="M1091.96 226.84L852.41 356.43" stroke="hsl(165.60000000000002, 100%, 65%)" stroke-width="1.5"></path><path d="M1111.66 406.63L1111.66 406.63" stroke="hsl(165.60000000000002, 100%, 65%)" stroke-width="1.5"></path><path d="M1111.66 406.63L1245.83 351.67" stroke="hsl(165.60000000000002, 100%, 65%)" stroke-width="1.5"></path><path d="M1111.66 406.63L1144 555.14" stroke="hsl(165.60000000000002, 100%, 65%)" stroke-width="1.5"></path><path d="M1144 555.14L1144 555.14" stroke="hsl(165.60000000000002, 100%, 65%)" stroke-width="1.5"></path><path d="M1144 555.14L1131.5 684.21" stroke="hsl(165.60000000000002, 100%, 65%)" stroke-width="1.5"></path><path d="M1144 555.14L987.87 541.93" stroke="hsl(165.60000000000002, 100%, 65%)" stroke-width="1.5"></path><path d="M1131.5 684.21L1131.5 684.21" stroke="hsl(165.60000000000002, 100%, 65%)" stroke-width="1.5"></path><path d="M1131.5 684.21L987.87 541.93" stroke="hsl(165.60000000000002, 100%, 65%)" stroke-width="1.5"></path><path d="M1131.5 684.21L1309.51 546.71" stroke="hsl(165.60000000000002, 100%, 65%)" stroke-width="1.5"></path><path d="M1131.5 684.21L1111.66 406.63" stroke="hsl(165.60000000000002, 100%, 65%)" stroke-width="1.5"></path><path d="M1261.06 -70.77L1261.06 -70.77" stroke="hsl(165.60000000000002, 100%, 65%)" stroke-width="1.5"></path><path d="M1261.06 -70.77L1265.55 56.29" stroke="hsl(165.60000000000002, 100%, 65%)" stroke-width="1.5"></path><path d="M1261.06 -70.77L1408.79 -80.38" stroke="hsl(165.60000000000002, 100%, 65%)" stroke-width="1.5"></path><path d="M1261.06 -70.77L1458.88 42.84" stroke="hsl(165.60000000000002, 100%, 65%)" stroke-width="1.5"></path><path d="M1261.06 -70.77L1240.67 209.8" stroke="hsl(165.60000000000002, 100%, 65%)" stroke-width="1.5"></path><path d="M1261.06 -70.77L1537.76 62.46" stroke="hsl(165.60000000000002, 100%, 65%)" stroke-width="1.5"></path><path d="M1265.55 56.29L1265.55 56.29" stroke="hsl(165.60000000000002, 100%, 65%)" stroke-width="1.5"></path><path d="M1265.55 56.29L1240.67 209.8" stroke="hsl(165.60000000000002, 100%, 65%)" stroke-width="1.5"></path><path d="M1240.67 209.8L1240.67 209.8" stroke="hsl(165.60000000000002, 100%, 65%)" stroke-width="1.5"></path><path d="M1240.67 209.8L1245.83 351.67" stroke="hsl(165.60000000000002, 100%, 65%)" stroke-width="1.5"></path><path d="M1240.67 209.8L1387.61 232.13" stroke="hsl(165.60000000000002, 100%, 65%)" stroke-width="1.5"></path><path d="M1245.83 351.67L1245.83 351.67" stroke="hsl(165.60000000000002, 100%, 65%)" stroke-width="1.5"></path><path d="M1408.79 -80.38L1408.79 -80.38" stroke="hsl(165.60000000000002, 100%, 65%)" stroke-width="1.5"></path><path d="M1408.79 -80.38L1458.88 42.84" stroke="hsl(165.60000000000002, 100%, 65%)" stroke-width="1.5"></path><path d="M1458.88 42.84L1458.88 42.84" stroke="hsl(165.60000000000002, 100%, 65%)" stroke-width="1.5"></path><path d="M1458.88 42.84L1537.76 62.46" stroke="hsl(165.60000000000002, 100%, 65%)" stroke-width="1.5"></path><path d="M1458.88 42.84L1265.55 56.29" stroke="hsl(165.60000000000002, 100%, 65%)" stroke-width="1.5"></path><path d="M1458.88 42.84L1387.61 232.13" stroke="hsl(165.60000000000002, 100%, 65%)" stroke-width="1.5"></path><path d="M1387.61 232.13L1387.61 232.13" stroke="hsl(165.60000000000002, 100%, 65%)" stroke-width="1.5"></path><path d="M1387.61 232.13L1404.82 343.72" stroke="hsl(165.60000000000002, 100%, 65%)" stroke-width="1.5"></path><path d="M1387.61 232.13L1245.83 351.67" stroke="hsl(165.60000000000002, 100%, 65%)" stroke-width="1.5"></path><path d="M1387.61 232.13L1265.55 56.29" stroke="hsl(165.60000000000002, 100%, 65%)" stroke-width="1.5"></path><path d="M1404.82 343.72L1404.82 343.72" stroke="hsl(165.60000000000002, 100%, 65%)" stroke-width="1.5"></path><path d="M1404.82 343.72L1245.83 351.67" stroke="hsl(165.60000000000002, 100%, 65%)" stroke-width="1.5"></path><path d="M1404.82 343.72L1416.1 507.57" stroke="hsl(165.60000000000002, 100%, 65%)" stroke-width="1.5"></path><path d="M1404.82 343.72L1579.22 370.07" stroke="hsl(165.60000000000002, 100%, 65%)" stroke-width="1.5"></path><path d="M1404.82 343.72L1240.67 209.8" stroke="hsl(165.60000000000002, 100%, 65%)" stroke-width="1.5"></path><path d="M1416.1 507.57L1416.1 507.57" stroke="hsl(165.60000000000002, 100%, 65%)" stroke-width="1.5"></path><path d="M1416.1 507.57L1567.99 500.47" stroke="hsl(165.60000000000002, 100%, 65%)" stroke-width="1.5"></path><path d="M1416.1 507.57L1432.68 678.27" stroke="hsl(165.60000000000002, 100%, 65%)" stroke-width="1.5"></path><path d="M1432.68 678.27L1432.68 678.27" stroke="hsl(165.60000000000002, 100%, 65%)" stroke-width="1.5"></path><path d="M1432.68 678.27L1581.34 689.62" stroke="hsl(165.60000000000002, 100%, 65%)" stroke-width="1.5"></path><path d="M1432.68 678.27L1252.04 695.96" stroke="hsl(165.60000000000002, 100%, 65%)" stroke-width="1.5"></path><path d="M1537.76 62.46L1537.76 62.46" stroke="hsl(165.60000000000002, 100%, 65%)" stroke-width="1.5"></path><path d="M1537.76 62.46L1408.79 -80.38" stroke="hsl(165.60000000000002, 100%, 65%)" stroke-width="1.5"></path><path d="M1579.22 370.07L1579.22 370.07" stroke="hsl(165.60000000000002, 100%, 65%)" stroke-width="1.5"></path><path d="M1579.22 370.07L1567.99 500.47" stroke="hsl(165.60000000000002, 100%, 65%)" stroke-width="1.5"></path><path d="M1579.22 370.07L1416.1 507.57" stroke="hsl(165.60000000000002, 100%, 65%)" stroke-width="1.5"></path><path d="M1579.22 370.07L1387.61 232.13" stroke="hsl(165.60000000000002, 100%, 65%)" stroke-width="1.5"></path><path d="M1579.22 370.07L1537.76 62.46" stroke="hsl(165.60000000000002, 100%, 65%)" stroke-width="1.5"></path><path d="M1579.22 370.07L1581.34 689.62" stroke="hsl(165.60000000000002, 100%, 65%)" stroke-width="1.5"></path><path d="M1567.99 500.47L1567.99 500.47" stroke="hsl(165.60000000000002, 100%, 65%)" stroke-width="1.5"></path><path d="M1567.99 500.47L1581.34 689.62" stroke="hsl(165.60000000000002, 100%, 65%)" stroke-width="1.5"></path><path d="M1567.99 500.47L1432.68 678.27" stroke="hsl(165.60000000000002, 100%, 65%)" stroke-width="1.5"></path><path d="M1567.99 500.47L1404.82 343.72" stroke="hsl(165.60000000000002, 100%, 65%)" stroke-width="1.5"></path><path d="M1567.99 500.47L1309.51 546.71" stroke="hsl(165.60000000000002, 100%, 65%)" stroke-width="1.5"></path><path d="M1581.34 689.62L1581.34 689.62" stroke="hsl(165.60000000000002, 100%, 65%)" stroke-width="1.5"></path><path d="M1581.34 689.62L1416.1 507.57" stroke="hsl(165.60000000000002, 100%, 65%)" stroke-width="1.5"></path><path d="M1581.34 689.62L1309.51 546.71" stroke="hsl(165.60000000000002, 100%, 65%)" stroke-width="1.5"></path><circle r="25" cx="410.5" cy="510.96" fill="url(&quot;#SvgjsRadialGradient1021&quot;)"></circle><circle r="25" cx="841.9" cy="678.6" fill="url(&quot;#SvgjsRadialGradient1021&quot;)"></circle><circle r="25" cx="987.87" cy="541.93" fill="url(&quot;#SvgjsRadialGradient1021&quot;)"></circle><circle r="25" cx="1309.51" cy="546.71" fill="url(&quot;#SvgjsRadialGradient1021&quot;)"></circle><circle r="25" cx="1252.04" cy="695.96" fill="url(&quot;#SvgjsRadialGradient1021&quot;)"></circle><circle r="25" cx="1584.37" cy="-75.1" fill="url(&quot;#SvgjsRadialGradient1021&quot;)"></circle><circle r="5" cx="-93.09" cy="551.26" fill="#80ffe1"></circle><circle r="5" cx="-87.6" cy="705.35" fill="#80ffe1"></circle><circle r="5" cx="74.91" cy="552.54" fill="#80ffe1"></circle><circle r="5" cx="38.08" cy="671.12" fill="#80ffe1"></circle><circle r="5" cx="247.91" cy="558.94" fill="#80ffe1"></circle><circle r="5" cx="207.55" cy="662.38" fill="#80ffe1"></circle><circle r="5" cx="348.49" cy="682.34" fill="#80ffe1"></circle><circle r="5" cx="509.81" cy="493.57" fill="#80ffe1"></circle><circle r="5" cx="519.11" cy="651" fill="#80ffe1"></circle><circle r="5" cx="654.28" cy="381.21" fill="#80ffe1"></circle><circle r="5" cx="688.39" cy="490.05" fill="#80ffe1"></circle><circle r="5" cx="699.44" cy="651.66" fill="#80ffe1"></circle><circle r="5" cx="852.41" cy="356.43" fill="#80ffe1"></circle><circle r="5" cx="853.77" cy="523.25" fill="#80ffe1"></circle><circle r="5" cx="945.68" cy="409.25" fill="#80ffe1"></circle><circle r="5" cx="982.94" cy="708.11" fill="#80ffe1"></circle><circle r="5" cx="1159.95" cy="-105.12" fill="#80ffe1"></circle><circle r="5" cx="1091.96" cy="226.84" fill="#80ffe1"></circle><circle r="5" cx="1111.66" cy="406.63" fill="#80ffe1"></circle><circle r="5" cx="1144" cy="555.14" fill="#80ffe1"></circle><circle r="5" cx="1131.5" cy="684.21" fill="#80ffe1"></circle><circle r="5" cx="1261.06" cy="-70.77" fill="#80ffe1"></circle><circle r="5" cx="1265.55" cy="56.29" fill="#80ffe1"></circle><circle r="5" cx="1240.67" cy="209.8" fill="#80ffe1"></circle><circle r="5" cx="1245.83" cy="351.67" fill="#80ffe1"></circle><circle r="5" cx="1408.79" cy="-80.38" fill="#80ffe1"></circle><circle r="5" cx="1458.88" cy="42.84" fill="#80ffe1"></circle><circle r="5" cx="1387.61" cy="232.13" fill="#80ffe1"></circle><circle r="5" cx="1404.82" cy="343.72" fill="#80ffe1"></circle><circle r="5" cx="1416.1" cy="507.57" fill="#80ffe1"></circle><circle r="5" cx="1432.68" cy="678.27" fill="#80ffe1"></circle><circle r="5" cx="1537.76" cy="62.46" fill="#80ffe1"></circle><circle r="5" cx="1579.22" cy="370.07" fill="#80ffe1"></circle><circle r="5" cx="1567.99" cy="500.47" fill="#80ffe1"></circle><circle r="5" cx="1581.34" cy="689.62" fill="#80ffe1"></circle></g><defs><mask id="SvgjsMask1020"><rect width="1440" height="560" fill="#ffffff"></rect></mask><radialGradient id="SvgjsRadialGradient1021"><stop stop-color="#ffffff" offset="0.1"></stop><stop stop-color="rgba(0, 255, 194, 1)" offset="0.2"></stop><stop stop-color="rgba(0, 255, 194, 0)" offset="1"></stop></radialGradient></defs></svg>